<svg width="43" height="15" viewBox="0 0 43 15" fill="none" xmlns="http://www.w3.org/2000/svg">
<path d="M43 3.05176e-05L11.5417 13.3484C8.93299 14.4483 6.74176 15 4.96979 15C2.96311 15 1.50647 14.3001 0.603463 12.8985C0.0355001 11.9986 -0.131126 10.8577 0.101792 9.4739C0.334711 8.09014 0.954632 6.6171 1.95797 5.04943C2.79469 3.78172 4.16532 2.11585 6.07346 0.0500243C5.42625 1.06538 4.95164 2.18023 4.66879 3.34963C4.16712 5.48331 4.61862 7.04919 6.0233 8.04907C6.69159 8.51509 7.61073 8.74899 8.78249 8.74899C9.71774 8.74899 10.7713 8.59901 11.943 8.29904L43 3.05176e-05Z" fill="black"/>
</svg>
